HIERARCHY
ROOT SpineBase
{
  OFFSET 0.000000 0.000000 0.000000
  CHANNELS 6 Xposition Yposition Zposition Zrotation Xrotation Yrotation
  JOINT SpineMid
  {
    OFFSET -0.000000 28.090726 0.000000
    CHANNELS 3 Zrotation Xrotation Yrotation
    JOINT SpineShoulder
    {
      OFFSET 0.045803 20.849559 -0.571933
      CHANNELS 3 Zrotation Xrotation Yrotation
      JOINT Neck
      {
        OFFSET 0.014584 6.886089 -0.482908
        CHANNELS 3 Zrotation Xrotation Yrotation
        JOINT Head
        {
          OFFSET -6.111777 10.399382 4.073716
          CHANNELS 3 Zrotation Xrotation Yrotation
          End Site
          {
            OFFSET 0 0 0
          }
        }
      }
      JOINT ShoulderLeft
      {
        OFFSET -10.359664 -3.179239 13.540838
        CHANNELS 3 Zrotation Xrotation Yrotation
        JOINT ElbowLeft
        {
          OFFSET -0.166625 -28.567534 3.817331
          CHANNELS 3 Zrotation Xrotation Yrotation
          JOINT WristLeft
          {
            OFFSET -1.456412 -24.729230 -4.528768
            CHANNELS 3 Zrotation Xrotation Yrotation
            JOINT HandLeft
            {
              OFFSET -1.009949 -2.482479 0.044557
              CHANNELS 3 Zrotation Xrotation Yrotation
              JOINT HandTipLeft
              {
                OFFSET 0.241666 -4.369078 -0.290762
                CHANNELS 3 Zrotation Xrotation Yrotation
                End Site
                {
                  OFFSET 0 0 0
                }
              }
              JOINT ThumbLeft
              {
                OFFSET -1.913717 0.633229 -0.908698
                CHANNELS 3 Zrotation Xrotation Yrotation
                End Site
                {
                  OFFSET 0 0 0
                }
              }
            }
          }
        }
      }
      JOINT ShoulderRight
      {
        OFFSET 6.978562 -3.215079 -13.325267
        CHANNELS 3 Zrotation Xrotation Yrotation
        JOINT ElbowRight
        {
          OFFSET 2.886231 -20.685262 -6.744859
          CHANNELS 3 Zrotation Xrotation Yrotation
          JOINT WristRight
          {
            OFFSET -5.291263 -20.956337 -2.054236
            CHANNELS 3 Zrotation Xrotation Yrotation
            JOINT HandRight
            {
              OFFSET -2.605806 -8.708545 1.184918
              CHANNELS 3 Zrotation Xrotation Yrotation
              JOINT HandTipRight
              {
                OFFSET -2.416731 -6.842662 -0.999871
                CHANNELS 3 Zrotation Xrotation Yrotation
                End Site
                {
                  OFFSET 0 0 0
                }
              }
              JOINT ThumbRight
              {
                OFFSET 2.941842 -0.019255 -0.254344
                CHANNELS 3 Zrotation Xrotation Yrotation
                End Site
                {
                  OFFSET 0 0 0
                }
              }
            }
          }
        }
      }
    }
  }
  JOINT HipLeft
  {
    OFFSET -3.685398 -0.001660 2.040052
    CHANNELS 3 Zrotation Xrotation Yrotation
    JOINT KneeLeft
    {
      OFFSET 0.748126 -35.153322 5.192720
      CHANNELS 3 Zrotation Xrotation Yrotation
      JOINT AnkleLeft
      {
        OFFSET 6.158885 -30.627880 3.760726
        CHANNELS 3 Zrotation Xrotation Yrotation
        JOINT FootLeft
        {
          OFFSET -2.869751 -7.846899 -3.101820
          CHANNELS 3 Zrotation Xrotation Yrotation
          End Site
          {
            OFFSET 0 0 0
          }
        }
      }
    }
  }
  JOINT HipRight
  {
    OFFSET 3.387762 1.617329 -8.924284
    CHANNELS 3 Zrotation Xrotation Yrotation
    JOINT KneeRight
    {
      OFFSET 8.387325 -35.919120 -4.335235
      CHANNELS 3 Zrotation Xrotation Yrotation
      JOINT AnkleRight
      {
        OFFSET 8.584625 -31.777937 -2.499965
        CHANNELS 3 Zrotation Xrotation Yrotation
        JOINT FootRight
        {
          OFFSET -1.946526 -6.662000 -7.907206
          CHANNELS 3 Zrotation Xrotation Yrotation
          End Site
          {
            OFFSET 0 0 0
          }
        }
      }
    }
  }
}
MOTION
Frames: 6
Frame Time: 0.033333
17.072877 74.274946 320.237189 0.000000 0.000000 57.173694 -0.000000 -0.000000 -57.173694 -0.000000 0.000000 0.000000 -0.000000 0.000000 0.000000 0.000000 0.000000 0.000000 -0.000000 0.000000 0.000000 -0.000000 0.000000 0.000000 -0.000000 0.000000 0.000000 -0.000000 0.000000 0.000000 0.000000 0.000000 0.000000 0.000000 0.000000 0.000000 -0.000000 0.000000 0.000000 -0.000000 0.000000 0.000000 -0.000000 0.000000 0.000000 -0.000000 0.000000 0.000000 0.000000 0.000000 0.000000 0.000000 0.000000 0.000000 -0.000000 -0.000000 -57.173694 -0.000000 0.000000 0.000000 -0.000000 0.000000 0.000000 0.000000 0.000000 0.000000 -0.000000 -0.000000 -57.173694 -0.000000 0.000000 0.000000 -0.000000 0.000000 0.000000 0.000000 0.000000 0.000000
17.081318 74.255273 320.172780 -0.084684 0.080417 57.306737 -0.021935 -0.114705 -57.306700 -0.000000 0.000000 0.000000 -0.000000 0.000000 0.000000 0.000000 0.000000 0.000000 -0.000000 0.000000 0.000000 0.082242 1.644005 -0.112779 2.019027 -1.781251 0.269415 -2.164686 4.492557 0.154123 0.000000 0.000000 0.000000 0.000000 0.000000 0.000000 -0.000000 0.000000 0.000000 -0.000000 0.000000 0.000000 -0.000000 0.000000 0.000000 -0.000000 0.000000 0.000000 0.000000 0.000000 0.000000 0.000000 0.000000 0.000000 -0.021935 -0.114705 -57.306700 -0.000000 0.000000 0.000000 -2.748256 0.348907 0.957763 0.000000 0.000000 0.000000 -0.021935 -0.114705 -57.306700 -0.000000 0.000000 0.000000 -0.000000 0.000000 0.000000 0.000000 0.000000 0.000000
17.087977 74.239985 320.126390 -0.160504 0.147250 57.399089 -0.037572 -0.214551 -57.398953 -0.000000 0.000000 0.000000 -0.000000 0.000000 0.000000 0.000000 0.000000 0.000000 -0.000000 0.000000 0.000000 0.151043 2.993328 -0.206963 3.716112 -2.876134 0.426729 -4.018670 8.143328 0.444314 0.000000 0.000000 0.000000 0.000000 0.000000 0.000000 -0.000000 0.000000 0.000000 0.490597 0.862613 -0.269681 -0.486587 -0.864882 0.262316 -0.000000 0.000000 0.000000 0.000000 0.000000 0.000000 0.000000 0.000000 0.000000 -0.037572 -0.214551 -57.398953 -0.000000 0.000000 0.000000 -5.089650 0.648690 1.771906 0.000000 0.000000 0.000000 -0.037572 -0.214551 -57.398953 -0.000000 0.000000 0.000000 -0.000000 0.000000 0.000000 0.000000 0.000000 0.000000
17.092853 74.229083 320.098019 -0.227479 0.200521 57.450307 -0.046633 -0.299634 -57.450031 -0.000000 0.000000 0.000000 0.697245 -0.473585 -0.547506 0.000000 0.000000 0.000000 -0.000000 0.000000 0.000000 0.204731 4.043506 -0.281170 5.189682 -3.353457 0.443277 -5.679018 10.995652 0.829703 0.000000 0.000000 0.000000 0.000000 0.000000 0.000000 -0.000000 0.000000 0.000000 0.609829 1.184988 -0.365413 -0.602389 -1.188787 0.352857 -0.000000 0.000000 0.000000 0.000000 0.000000 0.000000 0.000000 0.000000 0.000000 -0.046633 -0.299634 -57.450031 -0.000000 0.000000 0.000000 -7.016419 0.916457 2.435345 0.000000 0.000000 0.000000 -0.046633 -0.299634 -57.450031 -0.000000 0.000000 0.000000 -0.000000 0.000000 0.000000 0.000000 0.000000 0.000000
17.095946 74.222567 320.087668 -0.285627 0.240249 57.459820 -0.048896 -0.370015 -57.459379 -0.000000 0.000000 0.000000 0.763028 -0.572654 -0.630406 0.000000 0.000000 0.000000 -0.000000 0.000000 0.000000 0.241978 4.792082 -0.334310 6.507279 -3.254914 0.296827 -7.217444 13.086385 1.285418 0.000000 0.000000 0.000000 0.000000 0.000000 0.000000 -0.000000 0.000000 0.000000 0.641584 1.430338 -0.432145 -0.344357 -0.446903 0.165373 -0.289423 -0.987320 0.253075 0.000000 0.000000 0.000000 0.000000 0.000000 0.000000 -0.048896 -0.370015 -57.459379 -0.000000 0.000000 0.000000 -8.528421 1.167005 2.944841 0.000000 0.000000 0.000000 -0.048896 -0.370015 -57.459379 -0.000000 0.000000 0.000000 -0.000000 0.000000 0.000000 0.000000 0.000000 0.000000
17.097257 74.220436 320.095335 -0.334961 0.266444 57.426918 -0.044196 -0.425720 -57.426303 -0.000000 0.000000 0.000000 0.745137 -0.641280 -0.663523 0.000000 0.000000 0.000000 -0.000000 0.000000 0.000000 0.261825 5.237756 -0.365600 7.719359 -2.604599 -0.032754 -8.677941 14.447062 1.793987 0.000000 0.000000 0.000000 0.000000 0.000000 0.000000 -0.000000 0.000000 0.000000 0.585186 1.596767 -0.468673 -0.309589 -0.232047 0.083946 -0.264720 -1.368988 0.369614 0.000000 0.000000 0.000000 0.000000 0.000000 0.000000 -0.044196 -0.425720 -57.426303 -0.000000 0.000000 0.000000 -9.629520 1.412179 3.299281 0.000000 0.000000 0.000000 -0.044196 -0.425720 -57.426303 -0.000000 0.000000 0.000000 -0.000000 0.000000 0.000000 0.000000 0.000000 0.000000
